<?xml version="1.0" encoding="UTF-8"?>
<svg viewBox="0 0 640 480" xmlns="http://www.w3.org/2000/svg">
 <path transform="rotate(263.66 177.36 290.96)" d="m99.39 205.49c2.9761 1.4869 5.8501 3.2284 8.3002 5.5303 33.595 31.046 66.486 62.882 100.05 93.959 11.615 10.443 22.686 21.497 33.747 32.547 4.1423 4.5861 8.6238 8.9795 11.823 14.344 4.6475 8.0053 0.90663 19.389-7.4056 23.079-11.306 4.1707-23.672-0.86981-31.443-9.6673-20.071-22.851-37.888-47.606-55.701-72.3-17.466-23.604-34.53-47.514-50.979-71.866-2.9657-5.0988-6.909-9.7894-8.3901-15.625z"/>
 <path transform="rotate(-10.57 263.53 265.03)" d="m222.78 197.16c2.7906-7.179 10.983-11.22 18.614-14.207 30.01 7.7378 50.636 29.19 69.388 49.207 8.679 9.8519 18.744 20.866 17.25 33.917-2.0445 6.0077-6.4634 11.225-10.997 16.075-21.18 21.136-49.634 35.745-78.213 48.641-12.461 5.3487-24.428 11.58-37.235 16.315l-2.706-0.1375c7.7722-8.5177 17.908-15.174 26.213-23.283 20.958-20.418 41.352-41.276 63.923-60.451-10.252-6.6038-22.034-11.338-31.865-18.434-11.526-8.1337-22.463-17.283-29.944-28.401-3.9302-5.7103-6.3311-12.676-4.4277-19.24z"/>
 <path transform="rotate(260.24 375.71 137.77)" d="m398.03 75.872c-1.5294-6.5474-6.0174-10.233-10.198-12.957-16.441 7.0568-27.741 26.621-38.014 44.876-4.7548 8.9868-10.268 19.032-9.4501 30.933 1.1196 5.479 3.541 10.238 6.0253 14.66 11.603 19.276 27.191 32.6 42.847 44.36 6.8277 4.8775 13.384 10.56 20.4 14.879l1.4824-0.1255c-4.2587-7.7685-9.8113-13.838-14.36-21.235-11.482-18.621-22.655-37.644-35.021-55.132 5.617-6.0222 12.072-10.339 17.459-16.812 6.3142-7.4179 12.305-15.762 16.403-25.902 2.1544-5.2064 3.4688-11.559 2.4261-17.546z"/>
 <path d="m306.86 33.969c14.236-1.2682 29.282 4.3296 38.218 15.151 6.2833 6.7832 9.0617 15.811 10.076 24.655-0.56122 10.257-4.3852 20.639-12.033 28.055-11.625 12.257-31.525 16.434-47.528 10.212-21.894-7.1558-34.782-33.874-23.848-53.94 6.053-13.45 20.094-22.421 35.115-24.132z"/>
 <path transform="rotate(71.811 196.09 121.91)" d="m219.82 57.574c-1.6247-6.8049-6.394-10.636-10.837-13.467-17.471 7.3345-29.479 27.668-40.396 46.642-5.0526 9.3384-10.913 19.779-10.043 32.149 1.1903 5.6945 3.7628 10.64 6.4022 15.237 12.331 20.035 28.896 33.882 45.534 46.106 7.2544 5.07 14.222 10.977 21.677 15.465l1.5755-0.1302c-4.5249-8.0736-10.426-14.383-15.261-22.07-12.201-19.354-24.074-39.125-37.214-57.301 5.9687-6.2596 12.828-10.748 18.551-17.473 6.7102-7.7098 13.077-16.382 17.433-26.92 2.2881-5.4127 3.6858-12.015 2.5777-18.238z"/>
 <ellipse cx="163.8" cy="66.6" rx="4" ry="2" fill="#fff"/>
</svg>
